HIERARCHY
ROOT Hips
{
	OFFSET 0.000000 0.000000 0.000000
	CHANNELS 6 Xposition Yposition Zposition Zrotation Yrotation Xrotation 
	JOINT LHipJoint
	{
		OFFSET 0.000000 0.000000 0.000000
		CHANNELS 3 Zrotation Yrotation Xrotation
		JOINT LeftUpLeg
		{
			OFFSET 1.363060 -1.794630 0.839290
			CHANNELS 3 Zrotation Yrotation Xrotation
			JOINT LeftLeg
			{
				OFFSET 2.448110 -6.726130 0.000000
				CHANNELS 3 Zrotation Yrotation Xrotation
				JOINT LeftFoot
				{
					OFFSET 2.562200 -7.039590 0.000000
					CHANNELS 3 Zrotation Yrotation Xrotation
					JOINT LeftToeBase
					{
						OFFSET 0.157640 -0.433110 2.322550
						CHANNELS 3 Zrotation Yrotation Xrotation
						End Site
						{
							OFFSET 0.000000 0.000000 0.000000
						}
					}
				}
			}
		}
	}
	JOINT RHipJoint
	{
		OFFSET 0.000000 0.000000 0.000000
		CHANNELS 3 Zrotation Yrotation Xrotation
		JOINT RightUpLeg
		{
			OFFSET -1.305520 -1.794630 0.839290
			CHANNELS 3 Zrotation Yrotation Xrotation
			JOINT RightLeg
			{
				OFFSET -2.542530 -6.985550 0.000000
				CHANNELS 3 Zrotation Yrotation Xrotation
				JOINT RightFoot
				{
					OFFSET -2.568260 -7.056230 0.000000
					CHANNELS 3 Zrotation Yrotation Xrotation
					JOINT RightToeBase
					{
						OFFSET -0.164730 -0.452590 2.363150
						CHANNELS 3 Zrotation Yrotation Xrotation
						End Site
						{
							OFFSET 0.000000 0.000000 0.000000
						}
					}
				}
			}
		}
	}
	JOINT LowerBack
	{
		OFFSET 0.000000 0.000000 0.000000
		CHANNELS 3 Zrotation Yrotation Xrotation
		JOINT Spine
		{
			OFFSET 0.028270 2.035590 -0.193380
			CHANNELS 3 Zrotation Yrotation Xrotation
			JOINT Spine1
			{
				OFFSET 0.056720 2.048850 -0.042750
				CHANNELS 3 Zrotation Yrotation Xrotation
				JOINT Neck
				{
					OFFSET 0.000000 0.000000 0.000000
					CHANNELS 3 Zrotation Yrotation Xrotation
					JOINT Neck1
					{
						OFFSET -0.054170 1.746240 0.172020
						CHANNELS 3 Zrotation Yrotation Xrotation
						JOINT Head
						{
							OFFSET 0.104070 1.761360 -0.123970
							CHANNELS 3 Zrotation Yrotation Xrotation
							End Site
							{
								OFFSET 0.000000 0.000000 0.000000
							}
						}
					}
				}
				JOINT LeftShoulder
				{
					OFFSET 0.000000 0.000000 0.000000
					CHANNELS 3 Zrotation Yrotation Xrotation
					JOINT LeftArm
					{
						OFFSET 3.362410 1.200890 -0.311210
						CHANNELS 3 Zrotation Yrotation Xrotation
						JOINT LeftForeArm
						{
							OFFSET 4.983000 -0.000000 -0.000000
							CHANNELS 3 Zrotation Yrotation Xrotation
							JOINT LeftHand
							{
								OFFSET 3.483560 -0.000000 -0.000000
								CHANNELS 3 Zrotation Yrotation Xrotation
								JOINT LeftFingerBase
								{
									OFFSET 0.000000 0.000000 0.000000
									CHANNELS 3 Zrotation Yrotation Xrotation
									JOINT LeftHandIndex1
									{
										OFFSET 0.715260 -0.000000 -0.000000
										CHANNELS 3 Zrotation Yrotation Xrotation
										End Site
										{
											OFFSET 0.000000 0.000000 0.000000
										}
									}
								}
								JOINT LThumb
								{
									OFFSET 0.000000 0.000000 0.000000
									CHANNELS 3 Zrotation Yrotation Xrotation
									End Site
									{
										OFFSET 0.000000 0.000000 0.000000
									}
								}
							}
						}
					}
				}
				JOINT RightShoulder
				{
					OFFSET 0.000000 0.000000 0.000000
					CHANNELS 3 Zrotation Yrotation Xrotation
					JOINT RightArm
					{
						OFFSET -3.136600 1.374050 -0.404650
						CHANNELS 3 Zrotation Yrotation Xrotation
						JOINT RightForeArm
						{
							OFFSET -5.241900 -0.000000 -0.000000
							CHANNELS 3 Zrotation Yrotation Xrotation
							JOINT RightHand
							{
								OFFSET -3.444170 -0.000000 -0.000000
								CHANNELS 3 Zrotation Yrotation Xrotation
								JOINT RightFingerBase
								{
									OFFSET 0.000000 0.000000 0.000000
									CHANNELS 3 Zrotation Yrotation Xrotation
									JOINT RightHandIndex1
									{
										OFFSET -0.622530 -0.000000 -0.000000
										CHANNELS 3 Zrotation Yrotation Xrotation
										End Site
										{
											OFFSET 0.000000 0.000000 0.000000
										}
									}
								}
								JOINT RThumb
								{
									OFFSET 0.000000 0.000000 0.000000
									CHANNELS 3 Zrotation Yrotation Xrotation
									End Site
									{
										OFFSET 0.000000 0.000000 0.000000
									}
								}
							}
						}
					}
				}
			}
		}
	}
}
MOTION
Frames: 11
Frame Time: 0.008333
-11.609482 17.719829 -0.743035 -51.864355 88.702746 -27.380531 -11.733862 3.871940 0.832635 -6.835956 7.864730 -9.372086 -1.163936 0.520611 13.030670 0.663795 3.000059 18.616683 1.146799 -0.000000 -65.914700 8.478986 -1.003848 3.603059 11.307871 7.431354 -44.831512 1.812302 -1.994610 34.249779 -1.442439 -4.575261 -7.364836 -0.519800 -0.000000 -36.484200 3.384119 -3.315996 -4.193736 0.747754 -3.635384 -3.872212 -4.687378 -3.650112 -0.856044 7.151131 -16.271259 -10.056371 -2.388010 -0.153516 -0.645686 0.000000 0.000000 0.000000 5.001432 7.539177 -0.359219 -78.833046 -6.095173 31.327024 -178.467390 -68.995780 179.985615 2.925440 -7.186957 -0.209487 -0.137040 0.858786 -0.000000 0.000000 0.000000 0.000000 0.000000 0.000000 0.000000 3.551049 -11.237731 -0.418074 72.073095 -19.562381 27.221194 179.920211 76.426391 179.968368 -2.807794 12.571974 -0.317876 -0.036527 -0.569935 0.000000 0.000000 0.000000 0.000000 0.000000 0.000000 0.000000 
-11.353820 17.788933 -0.717454 -46.405815 88.423486 -21.788472 -11.836003 3.931448 0.710359 -6.421723 8.356617 -8.900775 -1.100098 0.575321 12.793482 0.721317 2.757393 20.497165 1.062400 0.000000 -63.921300 8.280076 -1.097098 4.001157 11.305825 8.300218 -44.098886 2.144103 -1.527397 29.468893 -1.262417 -3.976806 -6.131778 -0.654100 0.000000 -37.578700 3.592421 -3.244917 -4.428151 0.799041 -3.583058 -3.917669 -4.607812 -3.598481 -0.823929 6.917910 -16.294894 -10.050823 -2.356899 -0.151896 -0.638713 0.000000 0.000000 0.000000 5.275288 7.593028 -0.379624 -78.945677 -6.110678 32.012157 -178.403581 -68.267940 179.989861 2.474690 -7.141792 -0.176001 -0.122693 0.866423 -0.000000 0.000000 0.000000 0.000000 0.000000 0.000000 0.000000 3.105590 -11.205966 -0.448035 72.443324 -20.360019 26.634009 179.927587 76.083602 179.968681 -2.529837 12.527429 -0.283654 -0.047320 -0.567846 -0.000000 0.000000 0.000000 0.000000 0.000000 0.000000 0.000000 
-11.100052 17.845602 -0.690343 -40.620187 88.198258 -15.881570 -11.908234 3.971129 0.609288 -6.131813 8.545378 -8.421918 -1.032072 0.622124 12.808130 0.794310 2.889874 21.708903 1.124000 0.000001 -61.555300 8.104460 -1.158056 4.365459 11.192501 9.086390 -43.376950 2.444392 -1.051429 24.917622 -1.059551 -3.358210 -4.836007 -0.762100 -0.000000 -38.851100 3.708188 -3.186392 -4.637190 0.827619 -3.534363 -3.959946 -4.534440 -3.549473 -0.805926 6.710157 -16.282555 -10.045667 -2.333752 -0.150847 -0.632573 0.000000 0.000000 0.000000 5.584972 7.620015 -0.398366 -79.062320 -6.045903 32.634796 -178.353483 -67.562942 179.993597 2.065171 -7.136164 -0.146430 -0.107776 0.874247 -0.000000 0.000000 0.000000 0.000000 0.000000 0.000000 0.000000 2.720588 -11.134662 -0.470440 72.832683 -21.134157 26.004869 179.933248 75.747268 179.969063 -2.243842 12.488455 -0.248828 -0.058068 -0.566200 -0.000000 0.000000 0.000000 0.000000 0.000000 0.000000 0.000000 
-10.848420 17.889958 -0.662082 -33.981721 88.031003 -9.146300 -11.951660 3.995561 0.537671 -5.983549 8.411253 -7.926062 -0.954921 0.663155 13.068291 0.879873 3.439731 22.297212 1.373000 0.000000 -59.094600 7.953165 -1.186881 4.670065 10.993505 9.724631 -42.711064 2.704439 -0.595610 20.756142 -0.837280 -2.701934 -3.516808 -0.832800 0.000000 -40.275000 3.723267 -3.148622 -4.809098 0.832390 -3.496397 -3.995654 -4.469440 -3.509954 -0.798034 6.535657 -16.247705 -10.046923 -2.318406 -0.150244 -0.629066 0.000000 0.000000 0.000000 5.911897 7.628394 -0.415407 -79.168535 -5.913909 33.203196 -178.319506 -66.892313 179.996354 1.741192 -7.144770 -0.123160 -0.094249 0.881464 -0.000000 0.000000 0.000000 0.000000 0.000000 0.000000 0.000000 2.409694 -11.043524 -0.485643 73.217062 -21.845674 25.371474 179.937054 75.437130 179.969422 -1.983338 12.465276 -0.217591 -0.067715 -0.565173 -0.000000 0.000000 0.000000 0.000000 0.000000 0.000000 0.000000 
-10.599474 17.922381 -0.633348 -26.825312 87.909411 -1.939016 -11.963438 4.003721 0.491307 -5.961396 7.986020 -7.405884 -0.863102 0.700583 13.580669 0.977770 4.380345 22.336677 1.798800 -0.000000 -56.737500 7.827819 -1.191364 4.893687 10.767149 10.175686 -42.113064 2.923173 -0.189844 17.112015 -0.602674 -1.998833 -2.216398 -0.857100 0.000000 -41.801700 3.659540 -3.135289 -4.921287 0.820442 -3.474519 -4.020389 -4.415016 -3.485581 -0.800481 6.397339 -16.191386 -10.054925 -2.311281 -0.150078 -0.628602 0.000000 0.000000 0.000000 6.235954 7.620679 -0.428005 -79.259346 -5.727753 33.719615 -178.300827 -66.268495 179.998065 1.511045 -7.164948 -0.106682 -0.082918 0.888136 -0.000000 0.000000 0.000000 0.000000 0.000000 0.000000 0.000000 2.177729 -10.937016 -0.493273 73.584983 -22.469421 24.745446 179.939354 75.168407 179.969718 -1.760974 12.457139 -0.191140 -0.075913 -0.564712 -0.000000 0.000000 0.000000 0.000000 0.000000 0.000000 0.000000 
-10.353544 17.943337 -0.604752 -19.770231 87.810287 5.107949 -11.936188 3.994655 0.462476 -6.038873 7.332729 -6.877460 -0.755302 0.736709 14.365936 1.089031 5.631562 21.909496 2.350401 0.000000 -54.533700 7.736254 -1.178532 5.027679 10.579343 10.425849 -41.588837 3.104518 0.143162 14.070025 -0.365137 -1.250995 -0.972622 -0.831301 -0.000000 -43.386400 3.552561 -3.142498 -4.959181 0.801811 -3.468469 -4.031291 -4.373145 -3.476736 -0.813679 6.296674 -16.116078 -10.069182 -2.312165 -0.150317 -0.631239 0.000000 0.000000 0.000000 6.540014 7.599353 -0.433615 -79.333632 -5.495498 34.185212 -178.296408 -65.704169 179.998777 1.372686 -7.193808 -0.096888 -0.074127 0.894245 -0.000000 0.000000 0.000000 0.000000 0.000000 0.000000 0.000000 2.024531 -10.818045 -0.493554 73.926540 -22.985232 24.140833 179.940535 74.952548 179.969927 -1.585017 12.461907 -0.170374 -0.082431 -0.564752 -0.000000 0.000000 0.000000 0.000000 0.000000 0.000000 0.000000 
-10.110774 17.953184 -0.576756 -13.472237 87.698366 11.333382 -11.868917 3.969870 0.440803 -6.185967 6.535813 -6.366798 -0.635625 0.775433 15.440204 1.215732 7.086822 21.116282 2.957800 0.000000 -52.534000 7.684887 -1.151985 5.074300 10.482623 10.495296 -41.128332 3.253291 0.393385 11.659897 -0.136506 -0.484500 0.189020 -0.760100 0.000000 -44.968000 3.436713 -3.158847 -4.915375 0.783584 -3.470327 -4.026773 -4.344954 -3.475750 -0.836812 6.232667 -16.027249 -10.089786 -2.319804 -0.150845 -0.637124 0.000000 0.000000 0.000000 6.811640 7.573027 -0.430715 -79.394148 -5.225805 34.600778 -178.305329 -65.208838 179.998557 1.320614 -7.225727 -0.093274 -0.067985 0.899610 -0.000000 0.000000 0.000000 0.000000 0.000000 0.000000 0.000000 1.942931 -10.689010 -0.487192 74.234150 -23.375611 23.575471 179.940827 74.796830 179.970036 -1.460505 12.478881 -0.155895 -0.087110 -0.565285 -0.000000 0.000000 0.000000 0.000000 0.000000 0.000000 0.000000 
-9.871173 17.952070 -0.549539 -8.240875 87.546802 16.427552 -11.773068 3.933159 0.416585 -6.382967 5.678002 -5.898604 -0.511265 0.821659 16.800098 1.359695 8.645043 20.078500 3.558700 0.000000 -50.849500 7.670312 -1.115335 5.041510 10.497312 10.420132 -40.713075 3.372055 0.561070 9.872289 0.071711 0.259946 1.249596 -0.655500 0.000000 -46.463600 3.325954 -3.174296 -4.789773 0.766182 -3.471254 -4.006768 -4.330201 -3.473483 -0.867852 6.202655 -15.931804 -10.117512 -2.332235 -0.151486 -0.646488 0.000000 0.000000 0.000000 7.045499 7.552230 -0.419333 -79.444846 -4.926570 34.967052 -178.326768 -64.789005 179.997536 1.343273 -7.255366 -0.095141 -0.064253 0.903967 -0.000000 0.000000 0.000000 0.000000 0.000000 0.000000 0.000000 1.922085 -10.553403 -0.474991 74.505684 -23.629438 23.067692 179.940332 74.705393 179.970050 -1.386737 12.507855 -0.147502 -0.089946 -0.566317 -0.000000 0.000000 0.000000 0.000000 0.000000 0.000000 0.000000 
-9.634568 17.939923 -0.523111 -4.141827 87.348196 20.328930 -11.667053 3.888323 0.378928 -6.608962 4.849112 -5.503578 -0.390161 0.880316 18.439693 1.517991 10.201761 18.906726 4.099199 0.000000 -49.500000 7.681535 -1.075143 4.943245 10.616961 10.246515 -40.322025 3.460761 0.652882 8.668293 0.248756 0.929653 2.193554 -0.535500 0.000000 -47.771799 3.222477 -3.184077 -4.588395 0.747777 -3.466422 -3.972728 -4.326824 -3.464759 -0.904915 6.202097 -15.835649 -10.152136 -2.347311 -0.152075 -0.659163 0.000000 0.000000 0.000000 7.244230 7.541763 -0.400867 -79.494205 -4.601949 35.282673 -178.359415 -64.444655 179.995937 1.418742 -7.282671 -0.100793 -0.062169 0.907263 -0.000000 0.000000 0.000000 0.000000 0.000000 0.000000 0.000000 1.947573 -10.415296 -0.457748 74.743222 -23.747186 22.631850 179.939253 74.672375 179.969992 -1.354225 12.547223 -0.144099 -0.091249 -0.567850 -0.000000 0.000000 0.000000 0.000000 0.000000 0.000000 0.000000 
-9.400669 17.916447 -0.497367 -1.176443 87.110572 23.045214 -11.569154 3.838489 0.316703 -6.831931 4.141366 -5.220042 -0.279150 0.955567 20.354944 1.681934 11.652638 17.680912 4.535300 0.000000 -48.372400 7.705564 -1.039179 4.800634 10.817975 10.035574 -39.932984 3.517162 0.680358 7.980241 0.383948 1.458218 3.009523 -0.424000 0.000001 -48.784800 3.130473 -3.186463 -4.324356 0.728204 -3.454365 -3.927687 -4.331678 -3.448070 -0.946912 6.224973 -15.742942 -10.192261 -2.363017 -0.152494 -0.674515 0.000000 0.000000 0.000000 7.412695 7.540021 -0.377184 -79.552708 -4.250806 35.544432 -178.401934 -64.173453 179.994036 1.519439 -7.310369 -0.108443 -0.060634 0.909571 -0.000000 0.000000 0.000000 0.000000 0.000000 0.000000 0.000000 2.003749 -10.277988 -0.435986 74.949559 -23.739880 22.276492 179.937702 74.689953 179.969901 -1.348528 12.594563 -0.143889 -0.091473 -0.569810 -0.000000 0.000000 0.000000 0.000000 0.000000 0.000000 0.000000 
-9.169016 17.881375 -0.471964 1.110990 86.853628 25.038105 -11.485211 3.787464 0.231387 -7.048405 3.568296 -5.043135 -0.177496 1.047434 22.485944 1.847955 12.985318 16.511050 4.881000 0.000000 -47.655200 7.737283 -1.011287 4.622392 11.069067 9.798663 -39.543518 3.540485 0.649447 7.782107 0.476648 1.839357 3.651798 -0.330900 0.000000 -49.364700 3.037912 -3.185499 -4.009727 0.706082 -3.438300 -3.873195 -4.341760 -3.426725 -0.989516 6.267451 -15.660457 -10.238549 -2.377317 -0.152576 -0.692517 0.000000 0.000000 0.000000 7.555329 7.552281 -0.350347 -79.624732 -3.886263 35.757492 -178.450621 -63.973709 179.992085 1.623338 -7.344498 -0.116293 -0.058994 0.911147 -0.000000 0.000000 0.000000 0.000000 0.000000 0.000000 0.000000 2.079811 -10.151149 -0.411921 75.127839 -23.618009 22.010077 179.936082 74.746915 179.969801 -1.354753 12.651147 -0.145375 -0.091124 -0.572225 -0.000000 0.000000 0.000000 0.000000 0.000000 0.000000 0.000000 
